<?xml version="1.0" encoding="UTF-8" standalone="no"?>
<svg
   xmlns:dc="http://purl.org/dc/elements/1.1/"
   xmlns:cc="http://creativecommons.org/ns#"
   xmlns:rdf="http://www.w3.org/1999/02/22-rdf-syntax-ns#"
   xmlns:svg="http://www.w3.org/2000/svg"
   xmlns="http://www.w3.org/2000/svg"
   xmlns:sodipodi="http://sodipodi.sourceforge.net/DTD/sodipodi-0.dtd"
   xmlns:inkscape="http://www.inkscape.org/namespaces/inkscape"
   version="1.1"
   id="Layer_1"
   x="0px"
   y="0px"
   width="100px"
   height="100px"
   viewBox="0 0 100 100"
   enable-background="new 0 0 100 100"
   xml:space="preserve"
   inkscape:version="0.48.4 r9939"
   sodipodi:docname="logout.svg"><metadata
     id="metadata15"><rdf:RDF><cc:Work
         rdf:about=""><dc:format>image/svg+xml</dc:format><dc:type
           rdf:resource="http://purl.org/dc/dcmitype/StillImage" /></cc:Work></rdf:RDF></metadata><defs
     id="defs13" /><sodipodi:namedview
     pagecolor="#ffffff"
     bordercolor="#666666"
     borderopacity="1"
     objecttolerance="10"
     gridtolerance="10"
     guidetolerance="10"
     inkscape:pageopacity="0"
     inkscape:pageshadow="2"
     inkscape:window-width="1278"
     inkscape:window-height="780"
     id="namedview11"
     showgrid="false"
     inkscape:zoom="2.36"
     inkscape:cx="-24.788136"
     inkscape:cy="50"
     inkscape:window-x="0"
     inkscape:window-y="18"
     inkscape:window-maximized="0"
     inkscape:current-layer="Layer_1" /><path
     style="stroke-width:0;stroke-miterlimit:4;stroke-dasharray:none"
     inkscape:connector-curvature="0"
     d="m 91.5,22.2495 c 0,2.761481 -3.022,5 -6.75,5 h -43 c -3.728,0 -6.75,-2.238519 -6.75,-5 l 0,0 c 0,-2.761481 3.022,-5 6.75,-5 h 43 c 3.728,0 6.75,2.238519 6.75,5 l 0,0 z"
     id="path3" /><path
     style="stroke-width:20;stroke-miterlimit:4;stroke-dasharray:none"
     inkscape:connector-curvature="0"
     d="m 91.5,78.7495 c 0,2.762222 -3.022,5 -6.75,5 h -43 c -3.728,0 -6.75,-2.237778 -6.75,-5 l 0,0 c 0,-2.762222 3.022,-5 6.75,-5 h 43 c 3.728,0 6.75,2.237778 6.75,5 l 0,0 z"
     id="path5" /><path
     style="stroke-width:20;stroke-miterlimit:4;stroke-dasharray:none"
     inkscape:connector-curvature="0"
     d="m 86.5,83.7495 c -2.762222,0 -5,-3.022 -5,-6.75 v -53 c 0,-3.728 2.237778,-6.75 5,-6.75 l 0,0 c 2.762222,0 5,3.022 5,6.75 v 53 c 0,3.728 -2.237778,6.75 -5,6.75 l 0,0 z"
     id="path7" /><path
     style="stroke-width:20;stroke-miterlimit:4;stroke-dasharray:none"
     inkscape:connector-curvature="0"
     d="m 7.936,53.5265 15.054,15.054 c 2.097,2.097 5.497,2.097 7.594,0 2.097,-2.097 2.097,-5.497 0,-7.594 l -5.877,-5.877 h 26.079 c 2.967,0 5.371,-2.404 5.371,-5.369 0,-2.966 -2.404,-5.369 -5.371,-5.369 H 24.698 l 5.882,-5.875 c 2.099,-2.096 2.101,-5.495 0.005,-7.594 -1.049,-1.05 -2.424,-1.575 -3.799,-1.575 -1.374,0 -2.747,0.523 -3.795,1.57 L 7.938,45.9315 c -1.008,1.007 -1.574,2.373 -1.575,3.797 -0.001,1.425 0.566,2.792 1.573,3.798 z"
     id="path9" /></svg>