<svg xmlns="http://www.w3.org/2000/svg" xmlns:xlink="http://www.w3.org/1999/xlink" version="1.1" id="Your_Icon" x="0px" y="0px" width="100px" height="100px" viewBox="0 0 100 100" enable-background="new 0 0 100 100" xml:space="preserve">
<path d="M50,100C22.43,100,0,77.57,0,49.999C0,22.43,22.43,0,50,0c27.569,0,50,22.43,50,49.999C100,77.57,77.57,100,50,100z   M50,9.235c-22.478,0-40.766,18.287-40.766,40.765c0,22.478,18.288,40.766,40.766,40.766s40.765-18.288,40.765-40.766  C90.765,27.521,72.479,9.235,50,9.235z"/>
<path d="M39.055,75.477c-1.417,0-2.775-0.562-3.777-1.565L21.889,60.523c-2.086-2.086-2.086-5.467,0-7.554  c2.086-2.085,5.468-2.085,7.554,0.001l9.612,9.612l31.503-31.503c2.086-2.086,5.467-2.086,7.554,0c2.086,2.086,2.086,5.467,0,7.553  l-35.279,35.28C41.83,74.914,40.471,75.477,39.055,75.477z"/>
</svg>